<?xml version="1.0" encoding="UTF-8" standalone="no"?>
<svg
   xmlns:dc="http://purl.org/dc/elements/1.1/"
   xmlns:cc="http://creativecommons.org/ns#"
   xmlns:rdf="http://www.w3.org/1999/02/22-rdf-syntax-ns#"
   xmlns:svg="http://www.w3.org/2000/svg"
   xmlns="http://www.w3.org/2000/svg"
   enable-background="new 0 0 24 24"
   height="38.793961"
   id="Layer_1"
   version="1.1"
   viewBox="0 0 38.793959 38.793959"
   width="38.793961"
   xml:space="preserve"><metadata
     id="metadata11"><rdf:RDF><cc:Work
         rdf:about=""><dc:format>image/svg+xml</dc:format><dc:type
           rdf:resource="http://purl.org/dc/dcmitype/StillImage" /><dc:title></dc:title></cc:Work></rdf:RDF></metadata><defs
     id="defs9" /><circle
     r="18.596981"
     cy="19.39698"
     cx="19.39698"
     id="path824"
     style="opacity:1;fill:#32bea6;fill-opacity:1;stroke:#32bea6;stroke-width:1.60000002;stroke-linecap:round;stroke-linejoin:miter;stroke-miterlimit:4;stroke-dasharray:none;stroke-dashoffset:0;stroke-opacity:1;paint-order:fill markers stroke" /><g
     transform="translate(9.2719585,8.0321595)"
     id="layer1"><g
       id="g4"
       transform="translate(32.848239,-4.6)"
       style="stroke-width:2;stroke-miterlimit:4;stroke-dasharray:none;fill:#ffffff"><path
         d="m -17.7,19.5 h -13 c -1.6,0 -2.9,-1.3 -2.9,-2.9 V 7.5 c 0,-1.6 1.3,-2.9 2.9,-2.9 h 13 c 1.6,0 3,1.3 3,2.9 V 8.7 L -11.2,6 c 0.2,-0.1 0.4,-0.1 0.5,-0.1 0.2,0.1 0.3,0.3 0.3,0.4 v 11.2 c 0,0.2 -0.1,0.4 -0.3,0.4 -1.347891,-0.895753 -2.713391,-1.908398 -4.050781,-2.858594 L -14.7,16.3 c 0.07257,1.798537 -1.3,3.2 -3,3.2 z m -12.9,-14 c -1.1,0 -1.9,0.9 -1.9,1.9 v 9.1 c 0,1.1 0.9,1.9 1.9,1.9 h 13 c 1.1,0 2,-0.9 2,-1.9 v -2.2 c 0,-0.2 0.1,-0.4 0.3,-0.4 0.2,-0.1 0.4,-0.1 0.5,0.1 l 3.5,2.7 V 7.4 l -3.5,2.7 c -0.2,0.1 -0.4,0.1 -0.5,0.1 -0.2,-0.1 -0.3,-0.3 -0.3,-0.4 V 7.5 c 0,-1.1 -1.275665,-2.0714552 -2.37565,-2.0657282 z"
         id="path2"
         style="stroke-width:0.30000001;stroke-miterlimit:4;stroke-dasharray:none;fill:#ffffff" /><rect
         style="opacity:1;fill:#32bea6;fill-opacity:1;stroke:#32bea6;stroke-width:2;stroke-linecap:round;stroke-linejoin:miter;stroke-miterlimit:4;stroke-dasharray:none;stroke-dashoffset:0;stroke-opacity:1;paint-order:fill markers stroke"
         id="rect837"
         width="12.940989"
         height="2.1740227"
         x="-30.500362"
         y="18.060352" /></g><g
       style="fill:none;stroke:#000000;stroke-width:1.98604798;stroke-linecap:round;stroke-linejoin:round;stroke-miterlimit:4;stroke-dasharray:none"
       id="g835"
       transform="matrix(0.81045188,0,0,0.80081695,0.74781616,4.0489661)"><path
         id="path818"
         d="m 0.99494574,19.770609 v 3 a 2,2 0 0 0 1.99999996,2 H 16.994946 a 2,2 0 0 0 2,-2 v -3"
         style="stroke-width:1.98604798;stroke-miterlimit:4;stroke-dasharray:none;stroke:#ffffff;stroke-opacity:1" /><polyline
         id="polyline820"
         points="8 12 12 16 16 12"
         style="stroke-width:1.98604798;stroke-miterlimit:4;stroke-dasharray:none;stroke:#ffffff;stroke-opacity:1"
         transform="translate(-2.0050543,2.7706082)" /><line
         id="line822"
         y2="18.770609"
         y1="4.7706079"
         x2="9.9949455"
         x1="9.9949455"
         style="stroke-width:1.98604798;stroke-miterlimit:4;stroke-dasharray:none;stroke:#ffffff;stroke-opacity:1" /></g></g></svg>
